# xmcd CD database file
#
# Track frame offsets:
#	183
#	14005
#	28355
#	38148
#	52248
#	64223
#	77975
#	94333
#	108233
#	121923
#	135183
#	148595
#	162635
#	177060
#	192298
#	203733
#	217010
#	227415
#	242413
#	260293
#	272078
#	285038
#	298748
#	312508
#
# Disc length: 4347 seconds
#
# Revision: 0
# Processed by: cddbd v1.5.2PL0 Copyright (c) Steve Scherf et al.
# Submitted via: CDex 1.77
#
DISCID=6410f918
DTITLE=Boyd Raeburn - The Transcription Performances - 1946
DYEAR=1993
DGENRE=Jazz
TTITLE0=Boyd's Nest
TTITLE1=Blue Prelude
TTITLE2=High Tide
TTITLE3=Picnic In The Wintertime
TTITLE4=Are You Livin' Old Man?
TTITLE5=Tush
TTITLE6=Concerto For Duke
TTITLE7=Where You At?
TTITLE8=Out Of This World
TTITLE9=Boyd Meets Stravinsky
TTITLE10=Personality
TTITLE11=Dalvatore Sally
TTITLE12=Blue Echos
TTITLE13=I Only Have Eyes For You
TTITLE14=Two Spoos In An Igloo
TTITLE15=Temptation
TTITLE16=I Can't Believe That You're In Love With Me
TTITLE17=I Don't Know Why
TTITLE18=More Than You Know
TTITLE19=Amnesia
TTITLE20=Cartaphilius
TTITLE21=Night In Tunisia
TTITLE22=I Cover The Waterfront
TTITLE23=Foolish Little Boy
EXTD=YEAR: 1993
EXTT0=
EXTT1=
EXTT2=
EXTT3=
EXTT4=
EXTT5=
EXTT6=
EXTT7=
EXTT8=
EXTT9=
EXTT10=
EXTT11=
EXTT12=
EXTT13=
EXTT14=
EXTT15=
EXTT16=
EXTT17=
EXTT18=
EXTT19=
EXTT20=
EXTT21=
EXTT22=
EXTT23=
PLAYORDER=
